<svg width="291" height="36" fill="none" xmlns="http://www.w3.org/2000/svg"><path d="M20.452 21.14h-15.4V35H.256V2.88h4.796v13.684h15.4V2.88h4.752V35h-4.752V21.14zm21.654 14.344c-1.73 0-3.343-.323-4.84-.968a12.455 12.455 0 01-3.916-2.64 12.458 12.458 0 01-2.64-3.916c-.645-1.496-.968-3.11-.968-4.84 0-1.701.323-3.3.968-4.796.646-1.525 1.526-2.845 2.64-3.96a12.455 12.455 0 013.916-2.64c1.497-.645 3.11-.968 4.84-.968 1.702 0 3.3.323 4.797.968 1.525.645 2.845 1.525 3.96 2.64 1.114 1.115 1.994 2.435 2.64 3.96.645 1.496.968 3.095.968 4.796 0 1.73-.323 3.344-.968 4.84a12.455 12.455 0 01-2.64 3.916c-1.115 1.115-2.435 1.995-3.96 2.64-1.496.645-3.095.968-4.797.968zm0-4.444c1.086 0 2.083-.205 2.992-.616a7.44 7.44 0 002.42-1.672 7.863 7.863 0 001.629-2.508 7.93 7.93 0 00.616-3.124 7.804 7.804 0 00-.616-3.08 7.268 7.268 0 00-1.628-2.508 7.131 7.131 0 00-2.42-1.716 7.382 7.382 0 00-2.992-.616 7.49 7.49 0 00-3.036.616c-.91.41-1.716.983-2.42 1.716a7.613 7.613 0 00-1.585 2.508 8.328 8.328 0 00-.572 3.08c0 1.115.191 2.156.572 3.124a8.27 8.27 0 001.584 2.508 8.123 8.123 0 002.42 1.672 7.49 7.49 0 003.036.616zm16.962-19.8h4.708v2.728a7.623 7.623 0 012.772-2.332c1.114-.587 2.434-.88 3.96-.88 1.907 0 3.476.367 4.708 1.1a7.082 7.082 0 012.86 3.08c.763-1.261 1.804-2.273 3.124-3.036 1.32-.763 2.86-1.144 4.62-1.144 1.613 0 3.021.235 4.224.704 1.203.47 2.2 1.144 2.992 2.024.792.88 1.379 1.936 1.76 3.168.381 1.232.572 2.61.572 4.136V35h-4.884V21.052c0-1.848-.425-3.33-1.276-4.444-.85-1.115-2.215-1.672-4.092-1.672-1.701 0-3.066.543-4.092 1.628-.998 1.085-1.496 2.728-1.496 4.928V35h-4.796V20.744c0-1.819-.425-3.241-1.276-4.268-.822-1.027-2.142-1.54-3.96-1.54-1.76 0-3.153.572-4.18 1.716-.998 1.115-1.496 2.801-1.496 5.06V35h-4.752V11.24zm53.428 24.244c-1.907 0-3.638-.308-5.192-.924-1.526-.645-2.846-1.51-3.96-2.596a11.86 11.86 0 01-2.596-3.916c-.587-1.496-.88-3.11-.88-4.84 0-1.76.308-3.388.924-4.884.645-1.525 1.525-2.845 2.64-3.96a12.447 12.447 0 013.916-2.64c1.496-.645 3.124-.968 4.884-.968 1.76 0 3.373.308 4.84.924 1.496.587 2.786 1.423 3.872 2.508 1.085 1.085 1.936 2.376 2.552 3.872.616 1.467.924 3.08.924 4.84v1.98h-19.976c.352 1.936 1.232 3.49 2.64 4.664 1.408 1.144 3.212 1.716 5.412 1.716 1.672 0 3.065-.352 4.18-1.056a8.35 8.35 0 002.772-2.772l3.916 2.332a13.473 13.473 0 01-4.356 4.18c-1.76 1.027-3.931 1.54-6.512 1.54zm-.264-20.548c-1.907 0-3.535.557-4.884 1.672-1.35 1.085-2.259 2.493-2.728 4.224h15.004c-.352-1.877-1.188-3.33-2.508-4.356-1.291-1.027-2.919-1.54-4.884-1.54zM139.669 2.88h4.84L156.917 35h-4.972l-2.596-6.864h-14.52L132.277 35h-5.016l12.408-32.12zm-3.124 20.68h11.088l-5.544-14.696-5.544 14.696zm33.813 11.924c-1.555 0-3.051-.293-4.488-.88a11.874 11.874 0 01-3.828-2.508c-1.085-1.085-1.965-2.39-2.64-3.916-.645-1.525-.968-3.212-.968-5.06 0-1.877.323-3.564.968-5.06.645-1.525 1.511-2.83 2.596-3.916a11.874 11.874 0 013.828-2.508 12.211 12.211 0 014.576-.88c1.584 0 3.095.337 4.532 1.012 1.467.675 2.655 1.599 3.564 2.772V.24h4.664V35h-4.664v-3.476c-.939 1.232-2.141 2.2-3.608 2.904a10.174 10.174 0 01-4.532 1.056zm.616-4.356c1.115 0 2.141-.205 3.08-.616.968-.44 1.789-1.012 2.464-1.716a7.738 7.738 0 001.628-2.552 8.232 8.232 0 00.616-3.168 7.799 7.799 0 00-.616-3.08 7.18 7.18 0 00-1.628-2.552 7.034 7.034 0 00-2.464-1.716c-.939-.44-1.965-.66-3.08-.66a7.914 7.914 0 00-3.124.616 7.6 7.6 0 00-2.464 1.716c-.704.704-1.261 1.555-1.672 2.552a8.453 8.453 0 00-.572 3.124c0 1.115.191 2.17.572 3.168a8.372 8.372 0 001.672 2.552 7.606 7.606 0 002.464 1.716c.968.41 2.009.616 3.124.616zm15.753-19.888h5.016l6.82 17.864 7.084-17.864h4.928L200.719 35h-4.664l-9.328-23.76zm27.372 0h4.796V35h-4.796V11.24zm-.968-7.128c0-.968.308-1.775.924-2.42.645-.645 1.452-.968 2.42-.968.997 0 1.804.323 2.42.968.645.645.968 1.452.968 2.42s-.323 1.775-.968 2.42c-.616.645-1.423.968-2.42.968-.997 0-1.804-.323-2.42-.968-.616-.645-.924-1.452-.924-2.42zm10.314 26.532l14.388-15.136h-13.992V11.24h19.58v4.356l-14.388 15.136h14.608V35h-20.196v-4.356zm35.138 4.84c-1.731 0-3.344-.323-4.84-.968a12.458 12.458 0 01-3.916-2.64 12.445 12.445 0 01-2.64-3.916c-.645-1.496-.968-3.11-.968-4.84 0-1.701.323-3.3.968-4.796.645-1.525 1.525-2.845 2.64-3.96a12.458 12.458 0 013.916-2.64c1.496-.645 3.109-.968 4.84-.968 1.701 0 3.3.323 4.796.968 1.525.645 2.845 1.525 3.96 2.64 1.115 1.115 1.995 2.435 2.64 3.96.645 1.496.968 3.095.968 4.796 0 1.73-.323 3.344-.968 4.84a12.445 12.445 0 01-2.64 3.916c-1.115 1.115-2.435 1.995-3.96 2.64-1.496.645-3.095.968-4.796.968zm0-4.444c1.085 0 2.083-.205 2.992-.616a7.441 7.441 0 002.42-1.672 7.858 7.858 0 001.628-2.508 7.91 7.91 0 00.616-3.124 7.799 7.799 0 00-.616-3.08 7.264 7.264 0 00-1.628-2.508 7.132 7.132 0 00-2.42-1.716 7.384 7.384 0 00-2.992-.616 7.492 7.492 0 00-3.036.616 7.757 7.757 0 00-2.42 1.716 7.6 7.6 0 00-1.584 2.508 8.334 8.334 0 00-.572 3.08c0 1.115.191 2.156.572 3.124a8.254 8.254 0 001.584 2.508 8.127 8.127 0 002.42 1.672c.939.41 1.951.616 3.036.616zm16.917-19.8h4.664v4.136c.499-1.496 1.32-2.61 2.464-3.344 1.144-.763 2.479-1.144 4.004-1.144.822 0 1.57.088 2.244.264.704.147 1.291.367 1.76.66l-1.848 4.576c-.704-.47-1.701-.704-2.992-.704-1.701 0-3.05.455-4.048 1.364-.997.91-1.496 2.435-1.496 4.576V35H275.5V11.24z" fill="#000"/></svg>