<svg width="90" height="90" fill="none" xmlns="http://www.w3.org/2000/svg"><g clip-path="url(#clip0_206_323)"><path d="M68.906 0H21.094C9.444 0 0 9.444 0 21.094v47.812C0 80.556 9.444 90 21.094 90h47.812C80.556 90 90 80.556 90 68.906V21.094C90 9.444 80.556 0 68.906 0z" fill="url(#paint0_radial_206_323)"/><path d="M68.906 0H21.094C9.444 0 0 9.444 0 21.094v47.812C0 80.556 9.444 90 21.094 90h47.812C80.556 90 90 80.556 90 68.906V21.094C90 9.444 80.556 0 68.906 0z" fill="url(#paint1_radial_206_323)"/><path d="M45.003 9.844c-9.548 0-10.746.042-14.496.212-3.742.172-6.297.764-8.533 1.634-2.312.897-4.273 2.099-6.228 4.053-1.955 1.955-3.157 3.916-4.057 6.228-.872 2.235-1.465 4.791-1.634 8.532-.167 3.75-.211 4.95-.211 14.497 0 9.548.042 10.743.212 14.493.172 3.742.765 6.297 1.634 8.533.898 2.312 2.1 4.273 4.054 6.228 1.954 1.955 3.915 3.16 6.226 4.057 2.237.87 4.792 1.462 8.534 1.634 3.75.17 4.948.212 14.495.212 9.549 0 10.743-.042 14.493-.212 3.743-.172 6.3-.764 8.538-1.634 2.311-.898 4.27-2.102 6.223-4.058 1.956-1.954 3.156-3.915 4.058-6.226.864-2.237 1.457-4.792 1.633-8.534.168-3.75.212-4.945.212-14.493s-.044-10.746-.212-14.496c-.176-3.743-.77-6.297-1.633-8.532-.902-2.313-2.103-4.274-4.058-6.229-1.956-1.955-3.911-3.156-6.226-4.053-2.24-.87-4.797-1.463-8.54-1.634-3.75-.17-4.944-.212-14.495-.212h.011zm-3.154 6.335h3.154c9.387 0 10.5.034 14.206.202 3.428.157 5.289.73 6.528 1.211 1.64.637 2.81 1.4 4.04 2.63s1.992 2.402 2.63 4.043c.482 1.237 1.056 3.098 1.212 6.526.168 3.706.205 4.819.205 14.201 0 9.383-.037 10.496-.205 14.202-.157 3.428-.73 5.288-1.211 6.526-.637 1.64-1.4 2.809-2.63 4.039-1.231 1.23-2.4 1.992-4.041 2.63-1.238.483-3.1 1.054-6.527 1.21-3.707.169-4.82.206-14.207.206s-10.5-.037-14.206-.205c-3.428-.159-5.288-.731-6.528-1.213-1.64-.637-2.813-1.398-4.043-2.629-1.23-1.23-1.992-2.4-2.631-4.04-.481-1.239-1.055-3.1-1.21-6.527-.17-3.706-.203-4.819-.203-14.208 0-9.388.034-10.495.202-14.201.157-3.428.73-5.288 1.211-6.528.637-1.64 1.4-2.812 2.631-4.043 1.23-1.23 2.402-1.992 4.043-2.63 1.24-.484 3.1-1.055 6.528-1.213 3.243-.146 4.5-.19 11.052-.197v.008zm21.92 5.838a4.218 4.218 0 100 8.44 4.218 4.218 0 000-8.442v.002zm-18.766 4.929c-9.97 0-18.054 8.084-18.054 18.054 0 9.971 8.084 18.051 18.054 18.051 9.97 0 18.052-8.08 18.052-18.05 0-9.971-8.082-18.055-18.053-18.055h.001zm0 6.335c6.472 0 11.72 5.247 11.72 11.72 0 6.471-5.248 11.718-11.72 11.718S33.285 51.472 33.285 45c0-6.472 5.246-11.719 11.718-11.719z" fill="#fff"/></g><defs><radialGradient id="paint0_radial_206_323" cx="0" cy="0" r="1" gradientUnits="userSpaceOnUse" gradientTransform="scale(82.96 89.1967) rotate(-90 .687 .4)"><stop stop-color="#FD5"/><stop offset=".1" stop-color="#FD5"/><stop offset=".5" stop-color="#FF543E"/><stop offset="1" stop-color="#C837AB"/></radialGradient><radialGradient id="paint1_radial_206_323" cx="0" cy="0" r="1" gradientUnits="userSpaceOnUse" gradientTransform="matrix(7.82561 39.09589 -161.15431 32.25739 -15.075 6.483)"><stop stop-color="#3771C8"/><stop offset=".128" stop-color="#3771C8"/><stop offset="1" stop-color="#60F" stop-opacity="0"/></radialGradient><clipPath id="clip0_206_323"><path fill="#fff" d="M0 0h90v90H0z"/></clipPath></defs></svg>