<svg width="141" height="141" fill="none" xmlns="http://www.w3.org/2000/svg"><g id="jam:viber"><g id="Group" fill="#9AFA09"><path id="Vector" d="M113.329 59.379c.141-16.99-14.33-32.565-32.254-34.721a21.628 21.628 0 01-1.157-.177 16.774 16.774 0 00-2.732-.294c-3.678 0-4.66 2.585-4.918 4.119-.252 1.498-.011 2.761.711 3.742 1.216 1.651 3.36 1.945 5.082 2.18.5.07.975.135 1.375.223 16.11 3.602 21.532 9.26 24.181 25.233.065.388.094.87.13 1.38.117 1.91.352 5.882 4.623 5.882.353 0 .741-.03 1.14-.088 3.972-.606 3.848-4.236 3.789-5.981-.017-.494-.035-.958.012-1.27.009-.077.013-.156.012-.234l.006.006z"/><path id="Vector_2" d="M76.14 18.424c.482.035.928.07 1.304.123 26.455 4.072 38.622 16.603 41.989 43.264.059.452.07 1.005.076 1.586.035 2.086.106 6.422 4.759 6.51h.141c1.463 0 2.62-.441 3.454-1.31 1.446-1.51 1.352-3.76 1.264-5.57-.018-.447-.036-.864-.036-1.234.341-27.26-23.265-51.988-50.501-52.904-.118 0-.223 0-.33.018a2.28 2.28 0 01-.322.017c-.276 0-.605-.023-.964-.047-.423-.03-.91-.065-1.41-.065-4.335 0-5.158 3.085-5.264 4.924-.24 4.247 3.866 4.547 5.84 4.688zm42.018 77.844c-.568-.432-1.13-.87-1.686-1.316-2.891-2.327-5.963-4.465-8.93-6.54l-1.851-1.292c-3.807-2.673-7.226-3.971-10.457-3.971-4.36 0-8.155 2.409-11.292 7.15-1.386 2.103-3.073 3.125-5.146 3.125a10.225 10.225 0 01-4.148-1.04C62.369 86.814 53.592 78.273 48.575 67c-2.427-5.452-1.64-9.013 2.626-11.915 2.426-1.645 6.932-4.706 6.62-10.575-.363-6.656-15.057-26.696-21.25-28.97a12.062 12.062 0 00-8.2-.023c-7.115 2.391-12.215 6.597-14.77 12.15-2.468 5.37-2.35 11.673.317 18.23 7.726 18.958 18.583 35.49 32.277 49.132 13.401 13.354 29.875 24.287 48.956 32.507 1.722.74 3.526 1.145 4.847 1.439.447.1.835.188 1.117.264.155.042.315.064.475.065h.153c8.977 0 19.758-8.202 23.065-17.549 2.903-8.19-2.397-12.237-6.65-15.486zM80.112 40.085c-1.534.035-4.736.118-5.858 3.372-.529 1.528-.464 2.844.188 3.93.952 1.587 2.779 2.08 4.436 2.35 6.022.964 9.118 4.29 9.735 10.476.287 2.879 2.232 4.894 4.717 4.894.189 0 .377-.012.564-.035 2.996-.353 4.448-2.556 4.318-6.545.047-4.16-2.126-8.883-5.834-12.643-3.713-3.772-8.19-5.899-12.266-5.799z"/></g></g></svg>