<svg width="90" height="90" fill="none" xmlns="http://www.w3.org/2000/svg"><g id="logos:telegram" clip-path="url(#clip0_206_334)"><path id="Vector" d="M45 0a44.994 44.994 0 00-31.816 13.18A45.013 45.013 0 000 45a45.013 45.013 0 0013.184 31.82 44.995 44.995 0 0063.632 0A45.014 45.014 0 0090 45a45.014 45.014 0 00-13.184-31.82A44.994 44.994 0 0045 0z" fill="url(#paint0_linear_206_334)"/><path id="Vector_2" d="M20.37 44.525c13.12-5.715 21.867-9.483 26.24-11.304 12.502-5.198 15.096-6.1 16.79-6.131.373-.006 1.203.086 1.744.523.45.37.577.869.64 1.22.057.35.134 1.148.07 1.77-.674 7.116-3.606 24.383-5.097 32.353-.626 3.373-1.87 4.503-3.073 4.614-2.615.24-4.598-1.727-7.13-3.386-3.958-2.597-6.194-4.212-10.04-6.746-4.444-2.928-1.56-4.537.97-7.167.661-.688 12.178-11.161 12.396-12.111.029-.119.057-.562-.21-.795-.26-.234-.647-.154-.929-.091-.4.09-6.721 4.272-18.984 12.546-1.793 1.233-3.417 1.834-4.88 1.803-1.603-.035-4.697-.909-6.996-1.655-2.812-.917-5.055-1.401-4.858-2.957.098-.81 1.216-1.64 3.346-2.486z" fill="#fff"/></g><defs><linearGradient id="paint0_linear_206_334" x1="4500" y1="0" x2="4500" y2="9000" gradientUnits="userSpaceOnUse"><stop stop-color="#2AABEE"/><stop offset="1" stop-color="#229ED9"/></linearGradient><clipPath id="clip0_206_334"><path fill="#fff" d="M0 0h90v90H0z"/></clipPath></defs></svg>