<svg width="90" height="90" fill="none" xmlns="http://www.w3.org/2000/svg"><path id="Vector" d="M79.85 8.764C77.498 6.707 67.97.152 46.73.064c0 0-25.041-1.424-37.237 9.192C2.708 15.689.317 25.126.058 36.815c-.26 11.688-.575 33.588 21.685 39.528h.019l-.018 9.07s-.149 3.673 2.409 4.41c3.077.915 4.893-1.88 7.84-4.885 1.613-1.652 3.837-4.078 5.524-5.923 15.235 1.212 26.931-1.565 28.266-1.969 3.076-.949 20.48-3.058 23.298-24.958 2.929-22.602-1.409-36.874-9.23-43.324zm2.577 41.672c-2.391 18.28-16.496 19.44-19.091 20.23-1.112.334-11.4 2.76-24.318 1.969 0 0-9.638 11.02-12.64 13.885-.983.931-2.058.843-2.04-1.002 0-1.213.075-15.063.075-15.063-.019 0-.019 0 0 0C5.543 65.5 6.655 46.851 6.86 37.096c.204-9.754 2.15-17.751 7.896-23.13C25.08 5.09 46.339 6.41 46.339 6.41c17.96.07 26.561 5.202 28.563 6.925 6.617 5.378 9.99 18.243 7.525 37.102zM56.663 36.235c.075 1.511-2.316 1.617-2.39.105-.205-3.866-2.114-5.747-6.043-5.958-1.594-.088-1.446-2.355.13-2.267 5.171.264 8.044 3.076 8.303 8.12zm3.763 1.986c.185-7.452-4.727-13.287-14.05-13.938-1.575-.105-1.408-2.373.167-2.267 10.75.738 16.478 7.751 16.274 16.258-.019 1.511-2.428 1.44-2.391-.053zm8.711 2.355c.019 1.512-2.39 1.53-2.39.018-.112-14.325-10.176-22.128-22.39-22.216-1.576-.018-1.576-2.268 0-2.268 13.66.088 24.65 9.035 24.78 24.466zm-2.094 17.242v.035c-2.002 3.34-5.746 7.03-9.601 5.853l-.037-.053c-3.911-1.037-13.123-5.536-18.943-9.93-3.003-2.25-5.746-4.904-7.859-7.452-1.909-2.267-3.837-4.957-5.709-8.19-3.947-6.767-4.819-9.79-4.819-9.79-1.241-3.656 2.632-7.207 6.172-9.105h.038c1.705-.843 3.336-.562 4.43.686 0 0 2.298 2.601 3.28 3.884.927 1.195 2.169 3.11 2.817 4.183 1.131 1.916.427 3.867-.685 4.675l-2.225 1.688c-1.13.86-.982 2.46-.982 2.46s3.3 11.829 15.625 14.817c0 0 1.687.14 2.595-.932l1.78-2.109c.852-1.054 2.91-1.722 4.93-.65 2.724 1.459 6.19 3.726 8.489 5.782 1.297 1.002 1.594 2.531.704 4.148z" fill="#9561D7"/></svg>